<svg width="200" height="60" viewBox="0 0 200 60" fill="none" xmlns="http://www.w3.org/2000/svg">
<path d="M17.0239 6.52798C18.3893 6.61331 19.8613 6.91198 21.4399 7.42398C23.0613 7.89331 24.6613 8.61865 26.2399 9.59998C27.6906 10.496 28.8853 11.6266 29.8239 12.992C30.7626 14.3573 31.5093 15.7866 32.0639 17.28C32.3626 18.0053 32.4053 18.7946 32.1919 19.648C32.0213 20.4586 31.5306 21.0773 30.7199 21.504C29.9946 21.9306 29.2479 22.0373 28.4799 21.824C27.7546 21.6106 27.1573 21.0773 26.6879 20.224C25.8773 18.688 25.0453 17.3866 24.1919 16.32C23.3386 15.2106 22.2506 14.3786 20.9279 13.824C19.6053 13.2693 17.8346 13.0773 15.6159 13.248C14.6346 13.2906 13.6319 13.632 12.6079 14.272C11.6266 14.8693 10.7733 15.616 10.0479 16.512C9.3226 17.408 8.8746 18.368 8.70394 19.392C8.6186 19.776 8.6186 20.2026 8.70394 20.672C8.83194 21.0986 8.98127 21.5253 9.15194 21.952C9.87727 23.5306 10.8799 24.8746 12.1599 25.984C13.4826 27.0506 14.9333 27.9893 16.5119 28.8C17.7919 29.44 19.0719 30.0586 20.3519 30.656C21.6746 31.2106 22.9759 31.808 24.2559 32.448C26.9013 33.856 29.0133 35.6266 30.5919 37.76C32.2133 39.8506 33.0879 42.4746 33.2159 45.632C33.3013 47.5946 32.8319 49.472 31.8079 51.264C30.7839 53.0133 29.4186 54.4853 27.7119 55.68C26.0479 56.8746 24.2133 57.5573 22.2079 57.728C19.2213 58.0266 16.4266 58.0266 13.8239 57.728C11.2213 57.472 8.76794 56.576 6.46394 55.04C6.03727 54.784 5.39727 54.272 4.54394 53.504C3.73327 52.736 2.9226 51.8186 2.11194 50.752C1.34394 49.6853 0.789269 48.5546 0.447936 47.36C0.149269 46.1226 0.277269 44.928 0.831936 43.776C1.3866 42.752 2.0906 42.1333 2.94394 41.92C3.79727 41.664 4.5866 41.9626 5.31194 42.816C5.90927 43.4986 6.5706 44.288 7.29594 45.184C8.06394 46.08 8.76794 46.8266 9.40794 47.424C11.1573 49.1306 13.0986 50.1973 15.2319 50.624C17.3653 51.008 19.5626 51.1146 21.8239 50.944C22.8053 50.8586 23.6159 50.4746 24.2559 49.792C24.8959 49.0666 25.2799 48.2346 25.4079 47.296C25.7493 45.5466 25.5359 43.9893 24.7679 42.624C24.0426 41.2586 22.8906 40.1493 21.3119 39.296C19.1786 38.0586 17.0239 36.8426 14.8479 35.648C12.7146 34.4106 10.6239 33.1093 8.57594 31.744C6.52794 30.3786 4.94927 28.5866 3.83994 26.368C2.7306 24.1066 2.0266 21.7813 1.72794 19.392C1.5146 17.3013 1.8346 15.488 2.68794 13.952C3.54127 12.3733 4.7146 10.9866 6.20794 9.79198C7.5306 8.72531 9.02394 7.89331 10.6879 7.29598C12.3946 6.65598 14.5066 6.39998 17.0239 6.52798ZM18.4319 56.64H19.3919C21.9093 56.4693 24.1493 55.9573 26.1119 55.104C28.1173 54.2506 29.6959 52.6293 30.8479 50.24C31.4879 48.9173 31.7866 47.4453 31.7439 45.824C31.7439 44.16 31.4026 42.5386 30.7199 40.96C30.0799 39.3386 29.0986 37.9306 27.7759 36.736C25.5999 34.7306 23.0826 33.1946 20.2239 32.128C18.0053 31.2746 15.9146 30.208 13.9519 28.928C12.0319 27.6053 10.3039 26.0266 8.76794 24.192C7.6586 22.784 7.10394 21.3333 7.10394 19.84C7.1466 18.304 7.63727 16.896 8.57594 15.616C9.5146 14.336 10.7519 13.376 12.2879 12.736C14.3359 11.8826 16.1493 11.4986 17.7279 11.584C19.3066 11.6693 20.6506 12.032 21.7599 12.672C22.9119 13.2693 23.8506 13.9733 24.5759 14.784C25.3439 15.5946 25.8986 16.2773 26.2399 16.832C26.5813 17.344 26.9013 17.856 27.1999 18.368C27.4986 18.88 27.8399 19.3706 28.2239 19.84C28.3519 20.0106 28.5653 20.1386 28.8639 20.224C29.2053 20.3093 29.4613 20.3306 29.6319 20.288C29.8453 20.16 30.0586 19.968 30.2719 19.712C30.4853 19.4133 30.5919 19.136 30.5919 18.88C30.6346 18.5813 30.5919 18.2826 30.4639 17.984C30.3359 17.6426 30.2293 17.3226 30.1439 17.024C29.6319 15.0186 28.5439 13.3546 26.8799 12.032C25.2586 10.7093 23.3386 9.72798 21.1199 9.08798C18.9439 8.44798 16.7466 8.19198 14.5279 8.31998C12.3519 8.44798 10.4319 9.00265 8.76794 9.98398C7.4026 10.7946 6.22927 11.8826 5.24794 13.248C4.30927 14.6133 3.66927 16.1066 3.32794 17.728C3.02927 19.3493 3.15727 20.992 3.71194 22.656C4.47994 25.0026 5.6746 26.944 7.29594 28.48C8.95994 29.9733 10.7733 31.3386 12.7359 32.576C14.3573 33.6 16.0213 34.56 17.7279 35.456C19.4773 36.3093 21.2053 37.2053 22.9119 38.144C24.6613 39.0826 25.8773 40.32 26.5599 41.856C27.2853 43.3493 27.6053 45.056 27.5199 46.976C27.4346 48.2986 26.9226 49.536 25.9839 50.688C25.0453 51.7973 23.9146 52.416 22.5919 52.544C19.5626 52.8 16.7039 52.544 14.0159 51.776C11.3279 51.008 8.98127 49.3226 6.97594 46.72C6.3786 45.8666 5.69594 45.12 4.92794 44.48C4.75727 44.2666 4.47994 44.0746 4.09594 43.904C3.71194 43.6906 3.3706 43.6266 3.07194 43.712C2.90127 43.84 2.68794 44.0746 2.43194 44.416C2.17594 44.7573 2.04794 45.248 2.04794 45.888C2.04794 46.5706 2.1546 47.2106 2.36794 47.808C2.62394 48.3626 2.9226 48.9386 3.26394 49.536C4.41594 51.328 5.8026 52.6933 7.42394 53.632C9.08794 54.6133 10.8586 55.3173 12.7359 55.744C14.6559 56.1706 16.5546 56.4693 18.4319 56.64ZM74.8464 8.31998C75.6144 8.40531 76.2331 8.72531 76.7024 9.27998C77.1718 9.83465 77.4918 10.3466 77.6624 10.816C77.8758 11.4986 77.7691 12.3306 77.3424 13.312C76.9584 14.2506 76.4038 14.8906 75.6784 15.232C75.3798 15.36 75.0811 15.488 74.7824 15.616C74.4838 15.7013 74.1851 15.7653 73.8864 15.808C72.3078 15.9786 70.7291 16.1493 69.1504 16.32C67.6144 16.448 66.0784 16.5546 64.5424 16.64C63.6038 16.6826 62.8998 16.7253 62.4304 16.768C62.0038 16.768 61.7264 16.9173 61.5984 17.216C61.4704 17.5146 61.3851 18.1546 61.3424 19.136C61.1718 23.9146 60.9584 28.6933 60.7024 33.472C60.4891 38.2506 60.2758 43.0506 60.0624 47.872C60.0198 49.1946 59.9771 50.5813 59.9344 52.032C59.8918 53.5253 59.7638 54.9546 59.5504 56.32C59.3798 57.5146 58.9104 58.368 58.1424 58.88C57.3744 59.392 56.4998 59.6693 55.5184 59.712C54.5798 59.7546 53.6838 59.4346 52.8304 58.752C52.0198 58.0693 51.5504 57.1093 51.4224 55.872C51.2518 54.2506 51.2304 52.672 51.3584 51.136C51.5291 49.5573 51.6358 47.9146 51.6784 46.208C51.7638 43.8186 51.8704 41.4293 51.9984 39.04C52.1691 36.6506 52.3184 34.2826 52.4464 31.936C52.5318 29.9733 52.5958 28.032 52.6384 26.112C52.7238 24.1493 52.7878 22.1866 52.8304 20.224C52.8731 19.1573 52.8091 18.4106 52.6384 17.984C52.4678 17.5573 52.1264 17.3226 51.6144 17.28C51.1024 17.1946 50.3131 17.152 49.2464 17.152C47.8384 17.152 46.4091 17.1733 44.9584 17.216C43.5504 17.216 42.1424 17.1946 40.7344 17.152C40.1798 17.1093 39.5398 17.0026 38.8144 16.832C38.1318 16.6613 37.6198 16.4053 37.2784 16.064C36.8518 15.6373 36.5744 15.0613 36.4464 14.336C36.3611 13.6106 36.3398 12.9706 36.3824 12.416C36.4678 11.9466 36.6384 11.4133 36.8944 10.816C37.1931 10.2186 37.8544 9.70665 38.8784 9.27998C41.4811 8.68265 44.0624 8.38398 46.6224 8.38398C47.7744 8.34131 49.3531 8.31998 51.3584 8.31998C53.3638 8.27731 55.5611 8.23465 57.9504 8.19198C60.3398 8.14931 62.6864 8.12798 64.9904 8.12798C67.2944 8.08531 69.3211 8.08531 71.0704 8.12798C72.8624 8.17065 74.1211 8.23465 74.8464 8.31998ZM53.0224 56.128C53.0651 56.2133 53.1291 56.32 53.2144 56.448C53.2998 56.6186 53.3851 56.8106 53.4704 57.024C53.8544 57.5786 54.3878 57.8773 55.0704 57.92C55.7958 58.0053 56.4144 57.8133 56.9264 57.344C57.1398 57.216 57.3104 57.0453 57.4384 56.832C57.6091 56.6186 57.6944 56.2986 57.6944 55.872C57.7371 55.488 57.7798 55.1466 57.8224 54.848C57.9931 51.904 58.1424 48.9386 58.2704 45.952C58.3984 42.9226 58.5478 39.9146 58.7184 36.928C58.8464 33.6426 58.9744 30.4 59.1024 27.2C59.2731 23.9573 59.4224 20.7146 59.5504 17.472C59.5931 15.8506 60.5104 15.0613 62.3024 15.104C63.1558 15.104 64.2224 15.0613 65.5024 14.976C66.8251 14.8906 68.1478 14.784 69.4704 14.656C70.7931 14.528 71.9451 14.4 72.9264 14.272C73.9504 14.1013 74.5478 13.9733 74.7184 13.888C75.4864 13.4613 75.9344 12.8853 76.0624 12.16C76.1904 11.4346 75.8704 10.8586 75.1024 10.432C74.5478 10.0906 73.8864 9.85598 73.1184 9.72798C72.3931 9.59998 71.7104 9.53598 71.0704 9.53598C68.5104 9.57865 65.9504 9.64265 63.3904 9.72798C60.8731 9.81331 58.2918 9.81331 55.6464 9.72798C53.1291 9.64265 50.5904 9.72798 48.0304 9.98398C45.5131 10.24 42.9744 10.4533 40.4144 10.624C39.7318 10.6666 39.1344 10.816 38.6224 11.072C38.1531 11.328 37.8758 11.8826 37.7904 12.736C37.7478 13.5466 37.9398 14.2293 38.3664 14.784C38.8358 15.3386 39.3904 15.6373 40.0304 15.68C41.6091 15.7226 43.1878 15.7866 44.7664 15.872C46.3451 15.9146 47.9024 15.8933 49.4384 15.808C51.0598 15.6373 52.2758 15.616 53.0864 15.744C53.9398 15.8293 54.4944 16.2133 54.7504 16.896C55.0064 17.5786 55.0918 18.7306 55.0064 20.352C55.0064 20.6506 54.9851 20.9493 54.9424 21.248C54.9424 21.504 54.9211 21.76 54.8784 22.016C54.7504 23.5093 54.6011 25.3226 54.4304 27.456C54.3024 29.5466 54.1531 31.808 53.9824 34.24C53.8118 36.6293 53.6624 39.04 53.5344 41.472C53.4064 43.8613 53.2784 46.1013 53.1504 48.192C53.0651 50.24 53.0011 51.968 52.9584 53.376C52.9584 54.784 52.9798 55.7013 53.0224 56.128ZM89.7784 42.048C88.8398 41.9626 88.0078 41.8986 87.2824 41.856C86.5571 41.7706 85.8318 41.664 85.1064 41.536C84.5091 41.408 83.8904 41.2586 83.2504 41.088C82.6104 40.9173 81.9918 40.704 81.3944 40.448C80.7118 40.1066 80.2638 39.6373 80.0504 39.04C79.8798 38.4426 79.8798 37.8026 80.0504 37.12C80.3491 35.7546 81.2664 35.072 82.8024 35.072C83.9118 35.1146 85.0424 35.1146 86.1944 35.072C87.3464 35.0293 88.4771 35.0506 89.5864 35.136C90.5678 35.1786 91.3144 35.0293 91.8264 34.688C92.3811 34.304 92.8078 33.6426 93.1064 32.704C94.5998 28.1813 95.9864 23.6586 97.2664 19.136C98.5891 14.6133 99.6344 10.0053 100.402 5.31198C100.616 3.77598 101.277 2.45331 102.386 1.34398C103.24 0.44798 104.178 0.106647 105.202 0.319981C106.226 0.533314 106.952 1.23731 107.378 2.43198C107.72 3.45598 107.954 4.52265 108.082 5.63198C108.253 6.69865 108.445 7.76531 108.658 8.83198C110.28 16.384 111.944 23.936 113.65 31.488C113.821 32.3413 114.162 32.9173 114.674 33.216C115.229 33.472 115.89 33.5573 116.658 33.472C117.128 33.3866 117.554 33.3226 117.938 33.28C118.322 33.1946 118.728 33.1733 119.154 33.216C120.136 33.2586 120.946 33.5786 121.586 34.176C122.269 34.7733 122.632 35.4986 122.674 36.352C122.76 37.1626 122.525 37.952 121.97 38.72C121.416 39.4453 120.69 39.9146 119.794 40.128C119.325 40.2133 118.813 40.2773 118.258 40.32C117.704 40.32 117.17 40.32 116.658 40.32C114.866 40.4053 114.184 41.3226 114.61 43.072C114.952 44.5226 115.314 45.952 115.698 47.36C116.125 48.768 116.424 50.2186 116.594 51.712C116.936 53.3333 116.786 55.04 116.146 56.832C115.976 57.3013 115.57 57.7493 114.93 58.176C114.29 58.6453 113.714 58.88 113.202 58.88C112.733 58.88 112.2 58.6453 111.602 58.176C111.005 57.7493 110.557 57.3013 110.258 56.832C109.917 56.3626 109.704 55.7866 109.618 55.104C109.576 54.4213 109.512 53.7386 109.426 53.056C109.256 51.4346 109.064 49.8133 108.85 48.192C108.637 46.5706 108.424 44.9706 108.21 43.392C108.082 42.368 107.762 41.6213 107.25 41.152C106.738 40.6826 105.949 40.512 104.882 40.64C104.456 40.6826 104.008 40.704 103.538 40.704C103.112 40.6613 102.664 40.64 102.194 40.64C100.914 40.64 99.9331 40.7253 99.2504 40.896C98.6104 41.0666 98.1198 41.4506 97.7784 42.048C97.4371 42.6026 97.0744 43.52 96.6904 44.8C96.2638 46.464 95.7944 48.1066 95.2824 49.728C94.8131 51.3066 94.3011 52.8853 93.7464 54.464C93.3624 55.616 92.8291 56.64 92.1464 57.536C91.5918 58.304 90.9518 58.7306 90.2264 58.816C89.5011 58.9013 88.7331 58.7946 87.9224 58.496C87.1118 58.1973 86.4931 57.7706 86.0664 57.216C85.6824 56.6613 85.5758 55.9786 85.7464 55.168C86.1731 53.5893 86.6211 52.0533 87.0904 50.56C87.6024 49.024 88.0718 47.488 88.4984 45.952C88.7118 45.3546 88.9038 44.736 89.0744 44.096C89.2878 43.4133 89.5224 42.7306 89.7784 42.048ZM116.85 38.912C117.32 38.912 117.789 38.9333 118.258 38.976C118.728 38.976 119.154 38.8906 119.538 38.72C119.88 38.5493 120.264 38.2933 120.69 37.952C121.117 37.568 121.309 37.1626 121.266 36.736C121.224 36.352 120.968 36.0533 120.498 35.84C120.072 35.584 119.666 35.4133 119.282 35.328C118.728 35.2 118.13 35.1573 117.49 35.2C116.85 35.2 116.21 35.1786 115.57 35.136C114.717 35.0506 113.97 34.816 113.33 34.432C112.733 34.0053 112.328 33.344 112.114 32.448C111.176 28.6933 110.322 24.8533 109.554 20.928C108.829 16.96 108.04 13.0986 107.186 9.34398C107.016 8.49065 106.866 7.70131 106.738 6.97598C106.61 6.20798 106.482 5.41865 106.354 4.60798C106.269 4.18131 106.013 3.73331 105.586 3.26398C105.202 2.75198 104.797 2.47465 104.37 2.43198C103.986 2.30398 103.602 2.53865 103.218 3.13598C102.834 3.73331 102.514 4.39465 102.258 5.11998C102.045 5.80265 101.896 6.25065 101.81 6.46398C100.616 10.8586 99.3998 15.2746 98.1624 19.712C96.9678 24.1493 95.7518 28.5866 94.5144 33.024C94.0878 34.6026 93.5118 35.6053 92.7864 36.032C92.1038 36.4586 90.9091 36.608 89.2024 36.48C88.2638 36.3946 87.3251 36.3093 86.3864 36.224C85.4478 36.1386 84.5304 36.1173 83.6344 36.16C83.2931 36.2026 82.9091 36.3306 82.4824 36.544C82.0984 36.7573 81.8638 37.056 81.7784 37.44C81.7358 37.824 81.9064 38.1866 82.2904 38.528C82.7171 38.8693 83.0798 39.0826 83.3784 39.168C84.1464 39.3813 84.9144 39.5306 85.6824 39.616C86.4931 39.6586 87.2824 39.7013 88.0504 39.744C89.7144 39.9146 90.7598 40.32 91.1864 40.96C91.6558 41.5573 91.6984 42.6453 91.3144 44.224C91.2291 44.5653 91.1011 44.928 90.9304 45.312C90.7598 45.6533 90.6104 45.9946 90.4824 46.336C90.0131 47.7013 89.5224 49.0666 89.0104 50.432C88.5411 51.7973 88.0718 53.1413 87.6024 54.464C87.4318 55.0186 87.3251 55.552 87.2824 56.064C87.2824 56.576 87.6238 56.9813 88.3064 57.28C89.0318 57.5786 89.6931 57.6213 90.2904 57.408C90.9304 57.2373 91.3998 56.8106 91.6984 56.128C92.0398 55.488 92.3171 54.8266 92.5304 54.144C92.7864 53.4613 92.9998 52.7786 93.1704 52.096C93.6398 50.4746 94.0664 48.8533 94.4504 47.232C94.8344 45.6106 95.2184 43.968 95.6024 42.304C96.1998 40.1706 97.6718 39.0613 100.018 38.976C101 38.9333 102.002 38.912 103.026 38.912C104.05 38.912 105.053 38.8906 106.034 38.848C108.04 38.72 109.213 39.616 109.554 41.536C109.81 43.1146 110.024 44.6933 110.194 46.272C110.408 47.808 110.6 49.3653 110.77 50.944C110.856 51.6266 110.92 52.3093 110.962 52.992C111.048 53.7173 111.197 54.4213 111.41 55.104C111.496 55.5306 111.709 55.936 112.05 56.32C112.392 56.7466 112.84 56.9173 113.394 56.832C113.906 56.7466 114.29 56.5333 114.546 56.192C114.845 55.8933 115.037 55.5733 115.122 55.232C115.25 54.592 115.336 53.9093 115.378 53.184C115.421 52.5013 115.378 51.8826 115.25 51.328C114.952 49.7493 114.568 48.192 114.098 46.656C113.672 45.0773 113.266 43.4986 112.882 41.92C112.669 40.9386 112.733 40.2133 113.074 39.744C113.416 39.2746 114.056 38.9973 114.994 38.912C115.293 38.8693 115.592 38.8693 115.89 38.912C116.232 38.912 116.552 38.912 116.85 38.912ZM99.6984 35.392C98.8024 35.4773 98.2478 35.328 98.0344 34.944C97.8638 34.56 97.8638 34.0053 98.0344 33.28C98.5891 31.4453 99.1224 29.632 99.6344 27.84C100.146 26.0053 100.68 24.1706 101.234 22.336C101.405 21.824 101.554 21.2906 101.682 20.736C101.81 20.1386 102.045 19.648 102.386 19.264C102.77 18.88 103.346 18.688 104.114 18.688C105.224 18.688 105.928 19.0933 106.226 19.904C106.525 20.7146 106.76 21.504 106.93 22.272C107.357 23.936 107.698 25.6213 107.954 27.328C108.21 28.992 108.445 30.6773 108.658 32.384C108.786 33.4506 108.616 34.1973 108.146 34.624C107.72 35.0506 106.973 35.2853 105.906 35.328C105.352 35.3706 104.797 35.392 104.242 35.392C103.688 35.3493 103.133 35.328 102.578 35.328C102.578 35.328 102.216 35.328 101.49 35.328C100.765 35.328 100.168 35.3493 99.6984 35.392ZM106.226 33.344C106.098 32.32 105.949 31.1253 105.778 29.76C105.608 28.352 105.437 26.9653 105.266 25.6C105.096 24.2346 104.904 23.104 104.69 22.208C104.52 21.312 104.328 20.864 104.114 20.864C103.73 20.864 103.368 21.312 103.026 22.208C102.728 23.104 102.429 24.2346 102.13 25.6C101.832 26.9653 101.533 28.352 101.234 29.76C100.978 31.1253 100.722 32.32 100.466 33.344H106.226ZM139.034 35.264C139.887 36.416 140.677 37.4826 141.402 38.464C142.127 39.4026 142.853 40.3413 143.578 41.28C145.199 43.3706 146.821 45.44 148.442 47.488C150.106 49.4933 151.727 51.4986 153.306 53.504C153.69 53.9733 154.01 54.4853 154.266 55.04C154.565 55.5946 154.458 56.1706 153.946 56.768C153.391 57.408 152.687 57.856 151.834 58.112C150.981 58.368 150.17 58.304 149.402 57.92C148.847 57.6213 148.378 57.2373 147.994 56.768C147.653 56.2986 147.29 55.7866 146.906 55.232C144.645 52.3733 142.405 49.4933 140.186 46.592C137.967 43.6906 135.727 40.768 133.466 37.824C133.381 37.696 133.231 37.568 133.018 37.44C132.847 37.2693 132.719 37.2266 132.634 37.312C132.634 38.3786 132.613 39.4666 132.57 40.576C132.57 41.6426 132.591 42.7306 132.634 43.84C132.677 45.5466 132.719 47.2533 132.762 48.96C132.805 50.624 132.826 52.2666 132.826 53.888C132.826 54.912 132.506 55.808 131.866 56.576C131.567 56.96 131.162 57.3226 130.65 57.664C130.181 58.0053 129.754 58.1546 129.37 58.112C128.943 58.0693 128.453 57.856 127.898 57.472C127.343 57.088 127.002 56.704 126.874 56.32C126.575 55.2533 126.341 54.1653 126.17 53.056C126.042 51.9893 125.935 50.9226 125.85 49.856C125.765 48.4053 125.743 46.976 125.786 45.568C125.829 44.1173 125.829 42.6666 125.786 41.216C125.743 37.248 125.679 33.28 125.594 29.312C125.509 25.3013 125.445 21.2906 125.402 17.28C125.402 16.0426 125.381 14.8053 125.338 13.568C125.338 12.3306 125.359 11.1146 125.402 9.91998C125.487 9.02398 125.786 8.31998 126.298 7.80798C126.853 7.29598 127.557 6.95465 128.41 6.78398C129.263 6.57065 129.903 6.67731 130.33 7.10398C130.757 7.53065 131.183 8.04265 131.61 8.63998C131.781 8.89598 132.058 9.10931 132.442 9.27998C132.826 9.45065 133.167 9.53598 133.466 9.53598C134.831 9.57865 136.175 9.62131 137.498 9.66398C138.821 9.66398 140.143 9.64265 141.466 9.59998C143.087 9.47198 144.645 9.77065 146.138 10.496C147.674 11.2213 149.018 12.2453 150.17 13.568C151.322 14.848 152.154 16.2986 152.666 17.92C153.221 19.4986 153.349 21.12 153.05 22.784C152.837 23.8933 152.581 25.024 152.282 26.176C152.026 27.2853 151.706 28.3733 151.322 29.44C150.042 32.768 147.546 34.56 143.834 34.816C143.151 34.8586 142.426 34.9226 141.658 35.008C140.933 35.0933 140.058 35.1786 139.034 35.264ZM130.842 40.832C130.842 40.1066 130.821 39.4026 130.778 38.72C130.778 37.9946 130.821 37.312 130.906 36.672C130.991 36.3306 131.141 35.968 131.354 35.584C131.567 35.2 131.802 34.9653 132.058 34.88C132.271 34.7946 132.57 34.88 132.954 35.136C133.381 35.3493 133.679 35.6053 133.85 35.904C134.831 37.2266 135.983 38.8053 137.306 40.64C138.629 42.432 139.994 44.288 141.402 46.208C142.853 48.0853 144.197 49.856 145.434 51.52C146.714 53.1413 147.781 54.464 148.634 55.488C149.53 56.512 150.085 57.0453 150.298 57.088C150.767 57.1733 151.151 57.152 151.45 57.024C151.749 56.896 152.09 56.7253 152.474 56.512C153.071 56.2133 153.263 55.872 153.05 55.488C152.879 55.104 152.687 54.7413 152.474 54.4C151.877 53.5466 151.258 52.7146 150.618 51.904C149.978 51.0506 149.338 50.2186 148.698 49.408C146.906 47.1466 145.114 44.8853 143.322 42.624C141.573 40.3626 139.823 38.1226 138.074 35.904C137.093 34.6666 137.413 34.0053 139.034 33.92C139.631 33.8346 140.229 33.8133 140.826 33.856C141.466 33.8986 142.085 33.92 142.682 33.92C144.687 33.8346 146.394 33.2586 147.802 32.192C149.253 31.1253 150.255 29.6106 150.81 27.648C151.066 26.7946 151.279 25.92 151.45 25.024C151.621 24.0853 151.749 23.1466 151.834 22.208C151.962 20.5866 151.706 19.0293 151.066 17.536C150.469 16.0426 149.594 14.7626 148.442 13.696C147.333 12.6293 146.031 11.9893 144.538 11.776C142.789 11.4346 140.997 11.2426 139.162 11.2C137.37 11.1573 135.578 11.1146 133.786 11.072C132.847 11.0293 132.058 10.944 131.418 10.816C130.821 10.688 130.394 10.0266 130.138 8.83198C130.053 8.14931 129.754 7.74398 129.242 7.61598C128.73 7.44532 128.218 7.59465 127.706 8.06398C127.45 8.36265 127.215 8.74665 127.002 9.21598C126.789 9.68531 126.661 10.1333 126.618 10.56C126.575 11.6266 126.554 12.6933 126.554 13.76C126.554 14.8266 126.575 15.872 126.618 16.896C126.661 20.2666 126.703 23.6586 126.746 27.072C126.831 30.4426 126.895 33.8133 126.938 37.184C126.981 39.5733 127.002 41.984 127.002 44.416C127.045 46.848 127.087 49.2586 127.13 51.648C127.13 52.288 127.173 52.9706 127.258 53.696C127.343 54.4213 127.493 55.1253 127.706 55.808C127.791 56.1066 128.026 56.384 128.41 56.64C128.794 56.9386 129.135 57.088 129.434 57.088C129.69 57.088 129.967 56.9173 130.266 56.576C130.607 56.2773 130.821 55.9786 130.906 55.68C131.333 54.3146 131.503 53.0133 131.418 51.776C131.375 50.88 131.311 49.8133 131.226 48.576C131.183 47.3386 131.119 46.144 131.034 44.992C130.991 43.7973 130.949 42.816 130.906 42.048C130.863 41.2373 130.842 40.832 130.842 40.832ZM130.778 16.64C130.906 14.8906 131.802 14.016 133.466 14.016C135.045 14.0586 136.623 14.1013 138.202 14.144C139.781 14.144 141.338 14.208 142.874 14.336C144.282 14.5066 145.413 15.0186 146.266 15.872C147.119 16.7253 147.717 17.8346 148.058 19.2C148.399 20.5653 148.506 21.9306 148.378 23.296C148.25 24.6186 147.951 25.92 147.482 27.2C147.183 28.096 146.714 28.8426 146.074 29.44C145.434 30.0373 144.645 30.3786 143.706 30.464C141.743 30.5066 139.802 30.528 137.882 30.528C135.962 30.4853 134.042 30.464 132.122 30.464C131.482 30.464 131.055 30.2933 130.842 29.952C130.629 29.568 130.543 29.0986 130.586 28.544V23.488C130.586 23.488 130.586 23.0826 130.586 22.272C130.586 21.4186 130.607 20.4586 130.65 19.392C130.693 18.3253 130.735 17.408 130.778 16.64ZM132.058 27.392C132.058 28.7573 132.698 29.4613 133.978 29.504C135.258 29.504 136.559 29.5253 137.882 29.568C139.205 29.568 140.506 29.5253 141.786 29.44C143.407 29.3546 144.623 28.8426 145.434 27.904C146.287 26.9653 146.735 25.7066 146.778 24.128C146.821 23.5306 146.842 22.9546 146.842 22.4C146.842 21.8453 146.842 21.2693 146.842 20.672C146.799 19.136 146.458 17.9626 145.818 17.152C145.221 16.2986 144.175 15.7866 142.682 15.616C141.189 15.4453 139.674 15.3813 138.138 15.424C136.602 15.4666 135.087 15.5306 133.594 15.616C133.423 15.616 133.189 15.808 132.89 16.192C132.634 16.5333 132.485 16.832 132.442 17.088C132.399 17.6 132.357 18.368 132.314 19.392C132.271 20.3733 132.229 21.4186 132.186 22.528C132.143 23.6373 132.101 24.64 132.058 25.536C132.058 26.432 132.058 27.0506 132.058 27.392ZM196.659 8.31998C197.427 8.40531 198.046 8.72531 198.515 9.27998C198.984 9.83465 199.304 10.3466 199.475 10.816C199.688 11.4986 199.582 12.3306 199.155 13.312C198.771 14.2506 198.216 14.8906 197.491 15.232C197.192 15.36 196.894 15.488 196.595 15.616C196.296 15.7013 195.998 15.7653 195.699 15.808C194.12 15.9786 192.542 16.1493 190.963 16.32C189.427 16.448 187.891 16.5546 186.355 16.64C185.416 16.6826 184.712 16.7253 184.243 16.768C183.816 16.768 183.539 16.9173 183.411 17.216C183.283 17.5146 183.198 18.1546 183.155 19.136C182.984 23.9146 182.771 28.6933 182.515 33.472C182.302 38.2506 182.088 43.0506 181.875 47.872C181.832 49.1946 181.79 50.5813 181.747 52.032C181.704 53.5253 181.576 54.9546 181.363 56.32C181.192 57.5146 180.723 58.368 179.955 58.88C179.187 59.392 178.312 59.6693 177.331 59.712C176.392 59.7546 175.496 59.4346 174.643 58.752C173.832 58.0693 173.363 57.1093 173.235 55.872C173.064 54.2506 173.043 52.672 173.171 51.136C173.342 49.5573 173.448 47.9146 173.491 46.208C173.576 43.8186 173.683 41.4293 173.811 39.04C173.982 36.6506 174.131 34.2826 174.259 31.936C174.344 29.9733 174.408 28.032 174.451 26.112C174.536 24.1493 174.6 22.1866 174.643 20.224C174.686 19.1573 174.622 18.4106 174.451 17.984C174.28 17.5573 173.939 17.3226 173.427 17.28C172.915 17.1946 172.126 17.152 171.059 17.152C169.651 17.152 168.222 17.1733 166.771 17.216C165.363 17.216 163.955 17.1946 162.547 17.152C161.992 17.1093 161.352 17.0026 160.627 16.832C159.944 16.6613 159.432 16.4053 159.091 16.064C158.664 15.6373 158.387 15.0613 158.259 14.336C158.174 13.6106 158.152 12.9706 158.195 12.416C158.28 11.9466 158.451 11.4133 158.707 10.816C159.006 10.2186 159.667 9.70665 160.691 9.27998C163.294 8.68265 165.875 8.38398 168.435 8.38398C169.587 8.34131 171.166 8.31998 173.171 8.31998C175.176 8.27731 177.374 8.23465 179.763 8.19198C182.152 8.14931 184.499 8.12798 186.803 8.12798C189.107 8.08531 191.134 8.08531 192.883 8.12798C194.675 8.17065 195.934 8.23465 196.659 8.31998ZM174.835 56.128C174.878 56.2133 174.942 56.32 175.027 56.448C175.112 56.6186 175.198 56.8106 175.283 57.024C175.667 57.5786 176.2 57.8773 176.883 57.92C177.608 58.0053 178.227 57.8133 178.739 57.344C178.952 57.216 179.123 57.0453 179.251 56.832C179.422 56.6186 179.507 56.2986 179.507 55.872C179.55 55.488 179.592 55.1466 179.635 54.848C179.806 51.904 179.955 48.9386 180.083 45.952C180.211 42.9226 180.36 39.9146 180.531 36.928C180.659 33.6426 180.787 30.4 180.915 27.2C181.086 23.9573 181.235 20.7146 181.363 17.472C181.406 15.8506 182.323 15.0613 184.115 15.104C184.968 15.104 186.035 15.0613 187.315 14.976C188.638 14.8906 189.96 14.784 191.283 14.656C192.606 14.528 193.758 14.4 194.739 14.272C195.763 14.1013 196.36 13.9733 196.531 13.888C197.299 13.4613 197.747 12.8853 197.875 12.16C198.003 11.4346 197.683 10.8586 196.915 10.432C196.36 10.0906 195.699 9.85598 194.931 9.72798C194.206 9.59998 193.523 9.53598 192.883 9.53598C190.323 9.57865 187.763 9.64265 185.203 9.72798C182.686 9.81331 180.104 9.81331 177.459 9.72798C174.942 9.64265 172.403 9.72798 169.843 9.98398C167.326 10.24 164.787 10.4533 162.227 10.624C161.544 10.6666 160.947 10.816 160.435 11.072C159.966 11.328 159.688 11.8826 159.603 12.736C159.56 13.5466 159.752 14.2293 160.179 14.784C160.648 15.3386 161.203 15.6373 161.843 15.68C163.422 15.7226 165 15.7866 166.579 15.872C168.158 15.9146 169.715 15.8933 171.251 15.808C172.872 15.6373 174.088 15.616 174.899 15.744C175.752 15.8293 176.307 16.2133 176.563 16.896C176.819 17.5786 176.904 18.7306 176.819 20.352C176.819 20.6506 176.798 20.9493 176.755 21.248C176.755 21.504 176.734 21.76 176.691 22.016C176.563 23.5093 176.414 25.3226 176.243 27.456C176.115 29.5466 175.966 31.808 175.795 34.24C175.624 36.6293 175.475 39.04 175.347 41.472C175.219 43.8613 175.091 46.1013 174.963 48.192C174.878 50.24 174.814 51.968 174.771 53.376C174.771 54.784 174.792 55.7013 174.835 56.128Z" fill="black"/>
</svg>
